<svg width="495" height="443" viewBox="0 0 495 443" fill="none" xmlns="http://www.w3.org/2000/svg">
<path d="M169.183 435.18C167.984 435.18 167.384 434.758 167.384 433.913C167.384 433.431 167.85 433.069 168.783 432.828C170.249 432.587 171.582 432.225 172.781 431.742C173.98 431.38 174.98 430.958 175.78 430.476C184.575 425.53 193.104 413.468 201.366 394.289C204.032 388.017 206.564 381.322 208.962 374.205C211.361 367.089 213.56 359.61 215.559 351.77C207.297 361.902 197.502 370.888 186.174 378.729C172.181 388.861 159.854 393.927 149.193 393.927C141.864 393.927 136.133 391.153 132.002 385.604C128.537 380.659 126.805 374.628 126.805 367.511C126.805 352.674 132.735 337.416 144.596 321.735C155.79 307.14 169.116 296.284 184.575 289.167C180.977 288.805 178.112 288.624 175.979 288.624C170.782 288.624 165.452 289.167 159.988 290.253C156.39 291.097 152.991 292.062 149.793 293.148C146.595 294.233 143.663 295.5 140.997 296.947C133.268 301.048 129.403 305.632 129.403 310.698C129.403 311.301 129.47 311.784 129.603 312.145V313.412C129.603 315.101 129.004 315.945 127.804 315.945C126.472 315.945 125.206 314.859 124.006 312.688C123.606 311.723 123.273 310.879 123.007 310.155C122.74 309.311 122.607 308.467 122.607 307.622C122.607 300.505 129.67 295.017 143.796 291.157C154.191 288.383 164.519 286.996 174.78 286.996C176.379 286.996 178.245 287.116 180.377 287.358C182.509 287.478 184.842 287.659 187.374 287.9C194.17 285.126 200.767 283.076 207.163 281.749C213.56 280.301 219.757 279.698 225.754 279.939C225.754 279.457 225.754 278.854 225.754 278.13C225.754 277.286 225.687 276.441 225.554 275.597C225.421 274.511 225.354 273.607 225.354 272.883C225.354 272.039 225.354 271.375 225.354 270.893C225.354 269.928 225.687 269.445 226.353 269.445C227.553 269.445 228.286 273.004 228.552 280.12C239.48 280.965 247.942 284.161 253.939 289.71C259.936 295.138 262.935 302.858 262.935 312.869V313.593C262.935 315.644 262.002 316.669 260.136 316.669C259.203 316.669 258.004 316.307 256.538 315.583C253.473 313.895 249.475 311.784 244.544 309.251C239.747 306.718 234.149 303.883 227.753 300.747C227.086 307.019 226.154 313.593 224.954 320.468C223.755 327.344 222.222 334.521 220.357 341.999C221.822 340.19 223.422 338.2 225.154 336.029C226.887 333.737 228.686 331.264 230.551 328.61C231.484 327.284 232.084 326.62 232.35 326.62C232.617 326.861 232.75 327.042 232.75 327.163C232.75 329.575 228.086 336.511 218.757 347.97C216.625 356.173 214.36 364.013 211.961 371.492C209.562 378.849 206.897 385.906 203.965 392.661C199.834 402.552 195.636 410.694 191.371 417.087C187.24 423.6 183.042 428.425 178.778 431.561C175.313 433.974 172.115 435.18 169.183 435.18ZM225.354 294.957C225.487 293.268 225.554 291.579 225.554 289.891C225.687 288.202 225.754 286.574 225.754 285.006C222.822 284.644 219.624 284.463 216.159 284.463C211.628 284.463 207.297 284.825 203.165 285.548C199.167 286.151 195.303 287.116 191.571 288.443C198.235 289.288 204.365 290.253 209.962 291.338C215.692 292.424 220.823 293.63 225.354 294.957ZM255.139 306.537C256.071 306.537 256.538 305.933 256.538 304.727C256.538 303.4 256.138 302.013 255.339 300.566C250.408 292.967 241.546 287.961 228.752 285.548C228.619 288.564 228.419 292.002 228.153 295.862C231.617 296.826 235.349 298.153 239.347 299.842C243.478 301.41 247.876 303.4 252.54 305.813C253.606 306.295 254.472 306.537 255.139 306.537ZM154.99 385.604C164.186 385.604 175.58 380.659 189.173 370.768C194.103 367.149 198.901 363.289 203.565 359.188C208.363 354.966 212.894 350.443 217.158 345.618C219.157 337.536 220.823 329.696 222.156 322.097C223.488 314.377 224.488 306.898 225.154 299.661C219.024 297.128 212.894 295.017 206.764 293.328C200.767 291.64 194.636 290.373 188.373 289.529C173.581 295.801 161.12 305.632 150.992 319.021C140.331 333.013 135.001 347.186 135.001 361.54C135.001 364.918 135.4 367.933 136.2 370.587C137 373.241 138.066 375.653 139.398 377.824C142.863 383.011 148.06 385.604 154.99 385.604ZM171.782 442.598C165.252 442.598 158.588 440.487 151.792 436.266C144.063 431.561 140.198 426.616 140.198 421.429C140.198 420.947 140.398 420.705 140.798 420.705C141.197 420.705 141.464 421.067 141.597 421.791C147.061 433.009 155.59 438.618 167.184 438.618C172.648 438.618 177.912 437.411 182.976 434.999C194.037 429.571 203.632 416.604 211.761 396.098C211.894 396.098 217.491 378.789 228.552 344.171C234.016 326.68 239.48 317.935 244.944 317.935C247.209 317.935 249.208 318.599 250.941 319.926H250.541C248.675 320.287 246.343 325.715 243.545 336.21C239.813 350.081 236.348 361.781 233.15 371.311C230.085 380.84 227.42 388.198 225.154 393.384C215.026 416.664 202.366 431.983 187.174 439.341C182.643 441.513 177.512 442.598 171.782 442.598Z" fill="#374151"/>
<path d="M152.039 0.205078C152.176 0.205078 152.29 0.283614 152.373 0.363281C152.461 0.447628 152.55 0.565262 152.639 0.707031C152.773 0.920962 152.922 1.21024 153.084 1.57129L153.251 1.95703L153.26 1.97852L153.264 2.00195C154.849 11.2958 155.531 23.1626 155.313 37.5986C172.473 37.3971 189.073 38.909 205.113 42.1338C221.235 22.2309 237.73 12.2375 254.602 12.2373C258.251 12.2373 261.676 12.6723 264.874 13.5439H264.875C268.3 14.4157 271.499 15.7235 274.469 17.4678C280.228 20.8501 284.381 25.567 286.922 31.6133L287.163 32.2021L287.166 32.2109L287.332 32.7021C288.137 35.1606 288.54 37.6212 288.54 40.083C288.54 40.5276 288.483 40.8925 288.347 41.1533C288.277 41.2868 288.183 41.3984 288.062 41.4756C287.94 41.5531 287.801 41.5889 287.653 41.5889C286.987 41.5887 286.421 41.1706 285.948 40.4375C285.477 39.7063 285.074 38.6272 284.731 37.2148L284.599 36.7969C283.157 32.4948 279.505 28.7693 273.59 25.6328C267.706 22.8261 262.173 21.4268 256.987 21.4268C243.073 21.4268 230.138 28.8751 218.184 43.8359C231.013 45.7992 242.841 49.2544 253.665 54.2041C264.812 58.9811 274.824 65.1699 283.698 72.7705C303.954 90.1467 314.096 110.58 314.096 134.062C314.096 149.27 310.567 164.15 303.513 178.701L303.512 178.703C293.499 198.9 278.932 214.431 259.814 225.291L259.812 225.292C240.244 236.15 218.516 241.577 194.632 241.577C170.561 241.577 144.572 236.168 116.665 225.356C101.404 243.763 79.6802 252.959 51.5215 252.959C49.2465 252.959 46.9712 252.85 44.6963 252.633C42.6485 252.632 40.7128 252.525 38.8896 252.308V252.307C34.5508 251.87 30.2141 250.672 25.8809 248.713V248.712C21.7768 246.971 17.6754 244.579 13.5771 241.537L13.5723 241.534C4.68451 234.575 0.205089 227.042 0.205078 218.935C0.205078 214.887 1.2372 211.323 3.30664 208.251C5.37402 205.182 8.46887 202.615 12.5781 200.544C18.9761 197.055 26.8493 195.316 36.1875 195.316C48.9229 195.316 66.6261 199.755 89.2842 208.611C97.8661 199.108 105.663 187.777 112.673 174.613C119.709 161.4 126.065 146.56 131.741 130.093L132.667 127.351C142.085 99.1055 147.898 71.0641 150.111 43.2266C106.191 45.6404 73.3881 57.8742 51.668 79.8975C43.5181 88.3234 39.46 97.2724 39.46 106.746C39.46 114.834 41.747 121.917 46.3184 128.003C50.749 133.902 57.3335 138.875 66.085 142.916L66.9385 143.305L66.9424 143.307C68.7441 144.166 70.8883 144.921 73.376 145.568L82.917 147.845L82.9297 147.848L82.9424 147.853C83.5176 148.072 83.9647 148.297 84.2715 148.531C84.5735 148.762 84.7782 149.032 84.7783 149.345C84.7783 149.945 84.5532 150.42 84.0918 150.734C83.6445 151.039 82.9992 151.176 82.1875 151.176H82.1416L82.0996 151.156L81.4512 150.847C68.0206 149.753 55.9544 144.751 45.2568 135.845C33.4101 126.061 27.464 114.951 27.4639 102.519C27.4639 92.9156 31.4687 84.1933 39.4512 76.3574C63.5513 52.0567 100.576 39.1521 150.484 37.6074C150.702 34.6426 150.812 31.7823 150.812 29.0264V29.0186L150.812 29.0098C151.039 26.197 151.152 23.384 151.152 20.5713V16.9941C151.152 15.4867 151.04 13.6526 150.813 11.4902L150.733 10.7666C150.559 9.10127 150.472 7.60012 150.472 6.26367V2.68652C150.472 1.91414 150.585 1.30061 150.841 0.874023C151.106 0.430778 151.515 0.205157 152.039 0.205078ZM34.1436 198.653C30.5256 198.653 27.1364 199.084 23.9756 199.946L23.9658 199.949L23.9209 199.749L23.9648 199.949C21.0259 200.597 18.3147 201.458 15.8311 202.535C12.5619 204.149 10.1229 206.134 8.50098 208.482C6.87976 210.83 6.06739 213.553 6.06738 216.658C6.06738 224.805 10.5535 231.794 19.6006 237.622H19.6016C27.7487 242.806 36.343 245.395 45.3877 245.395C56.0343 245.395 66.7974 243.124 77.6787 238.581C89.8145 233.219 98.3605 227.016 103.348 219.985C99.6044 218.098 95.8613 216.312 92.1182 214.629C75.7687 232.143 58.7151 240.927 40.958 240.927C38.7937 240.927 37.1466 240.738 36.0342 240.347C35.4774 240.151 35.0402 239.899 34.7402 239.583C34.4357 239.262 34.2793 238.879 34.2793 238.445C34.2794 238.104 34.4348 237.812 34.7139 237.577C34.9869 237.347 35.3808 237.168 35.877 237.028C36.8701 236.75 38.341 236.614 40.2764 236.614C55.8047 236.614 71.2473 228.489 86.6064 212.179C65.6122 203.156 48.1274 198.653 34.1436 198.653ZM215.171 48.4375C211.785 53.4034 207.838 59.9727 203.33 68.1475L203.329 68.1494C199.073 75.6629 194.517 84.7018 189.66 95.2666L188.686 97.4004C184.824 105.856 179.938 116.37 174.032 128.943C168.351 141.305 161.194 155.51 152.561 171.555C146.88 182.615 141.311 192.268 135.854 200.513C130.693 208.437 125.527 215.201 120.36 220.805C132.974 225.946 145.137 229.702 156.851 232.066H156.853C168.88 234.665 180.337 235.964 191.225 235.964C221.163 235.964 245.757 226.658 265.022 208.056L265.023 208.055C284.516 189.452 294.264 165.985 294.264 137.639C294.264 116.448 286.561 97.201 271.145 79.8916C255.985 62.8328 237.329 52.3497 215.171 48.4375ZM154.958 42.8896C153.352 71.6811 147.56 101.226 137.582 131.523V131.525C126.262 165.016 112.116 191.523 95.1436 211.039L106.328 215.12C110.148 211.453 114.311 206.079 118.814 198.988C123.353 191.842 128.119 183.178 133.114 172.993L133.116 172.989C138.794 161.936 144.131 150.883 149.127 139.83V139.828C154.352 128.555 159.577 117.39 164.802 106.333L164.803 106.331C179.205 76.4785 191.503 56.4906 201.697 46.3975C195.465 45.3457 189.014 44.5007 182.346 43.8643H182.345C175.764 43.2146 168.956 42.8897 161.921 42.8896H154.958Z" fill="#172554" stroke="#C6B89B" stroke-width="0.410315"/>
<path d="M322.317 247.84C318.468 247.84 315.05 247.065 312.063 245.514C309.076 243.963 306.749 241.751 305.084 238.879C303.418 236.007 302.585 232.589 302.585 228.625C302.585 224.777 303.217 221.215 304.48 217.941C305.744 214.667 307.525 211.823 309.823 209.41C312.121 206.94 314.82 205.045 317.922 203.723C321.082 202.402 324.5 201.742 328.176 201.742C332.14 201.742 335.5 202.46 338.258 203.896C341.015 205.274 343.14 207.314 344.634 210.014C346.127 212.656 346.874 215.873 346.874 219.664C346.874 225.121 345.869 229.975 343.858 234.226C341.848 238.477 339.004 241.809 335.328 244.222C331.651 246.634 327.314 247.84 322.317 247.84ZM323.609 242.412C327.401 242.412 330.761 241.522 333.691 239.741C336.678 237.903 339.004 235.375 340.67 232.158C342.394 228.941 343.255 225.294 343.255 221.215C343.255 216.735 341.934 213.259 339.292 210.789C336.707 208.319 333.059 207.084 328.348 207.084C324.615 207.084 321.254 208.003 318.267 209.841C315.28 211.679 312.925 214.207 311.201 217.424C309.536 220.583 308.703 224.231 308.703 228.367C308.703 232.79 309.995 236.237 312.58 238.707C315.222 241.177 318.899 242.412 323.609 242.412ZM338.516 247.41L341.101 234.399L343.686 225.265L344.548 215.787L347.305 202.172H353.423L344.375 247.41H338.516ZM357.105 247.41L366.066 202.172H371.926L369.341 215.528L368.651 213.202C370.662 209.238 373.304 206.337 376.579 204.499C379.91 202.661 384.046 201.742 388.987 201.742L387.866 207.687C387.579 207.687 387.292 207.687 387.005 207.687C386.775 207.63 386.488 207.601 386.143 207.601C381.318 207.601 377.325 209.008 374.166 211.823C371.064 214.58 368.939 218.774 367.79 224.403L363.223 247.41H357.105ZM391.878 247.41L400.839 202.172H406.957L397.996 247.41H391.878ZM406.44 192.177C405.234 192.177 404.228 191.775 403.424 190.971C402.677 190.167 402.304 189.219 402.304 188.127C402.304 186.864 402.735 185.772 403.596 184.853C404.515 183.934 405.664 183.474 407.043 183.474C408.307 183.474 409.312 183.848 410.059 184.595C410.863 185.341 411.265 186.289 411.265 187.438C411.265 188.817 410.806 189.966 409.887 190.885C409.025 191.746 407.876 192.177 406.44 192.177ZM406.401 264.557C404.448 264.557 402.668 264.298 401.059 263.781C399.393 263.322 397.986 262.632 396.837 261.713L399.681 256.974C401.461 258.525 403.73 259.301 406.488 259.301C408.958 259.301 410.911 258.611 412.347 257.233C413.84 255.911 414.903 253.729 415.535 250.684L425.272 202.172H431.39L421.653 250.856C419.815 259.99 414.731 264.557 406.401 264.557ZM430.787 192.177C429.58 192.177 428.575 191.775 427.771 190.971C427.024 190.167 426.651 189.219 426.651 188.127C426.651 186.864 427.081 185.772 427.943 184.853C428.862 183.934 430.011 183.474 431.39 183.474C432.653 183.474 433.659 183.848 434.405 184.595C435.21 185.341 435.612 186.289 435.612 187.438C435.612 188.817 435.152 189.966 434.233 190.885C433.371 191.746 432.223 192.177 430.787 192.177ZM459.688 247.84C455.839 247.84 452.421 247.065 449.434 245.514C446.447 243.963 444.12 241.751 442.455 238.879C440.789 236.007 439.956 232.589 439.956 228.625C439.956 224.777 440.588 221.215 441.851 217.941C443.115 214.667 444.896 211.823 447.194 209.41C449.492 206.94 452.191 205.045 455.293 203.723C458.453 202.402 461.871 201.742 465.547 201.742C469.511 201.742 472.871 202.46 475.629 203.896C478.386 205.274 480.511 207.314 482.005 210.014C483.498 212.656 484.245 215.873 484.245 219.664C484.245 225.121 483.24 229.975 481.229 234.226C479.219 238.477 476.375 241.809 472.699 244.222C469.022 246.634 464.685 247.84 459.688 247.84ZM460.98 242.412C464.772 242.412 468.132 241.522 471.062 239.741C474.049 237.903 476.375 235.375 478.041 232.158C479.765 228.941 480.626 225.294 480.626 221.215C480.626 216.735 479.305 213.259 476.663 210.789C474.078 208.319 470.43 207.084 465.719 207.084C461.986 207.084 458.625 208.003 455.638 209.841C452.651 211.679 450.296 214.207 448.572 217.424C446.907 220.583 446.074 224.231 446.074 228.367C446.074 232.79 447.366 236.237 449.951 238.707C452.593 241.177 456.27 242.412 460.98 242.412ZM475.887 247.41L478.472 234.399L481.057 225.265L481.919 215.787L484.676 202.172H490.794L481.746 247.41H475.887Z" fill="#374151"/>
<path d="M265.827 397.455C262.749 397.455 260.062 396.901 257.764 395.793C255.507 394.644 253.763 393.044 252.532 390.992C251.343 388.941 250.748 386.499 250.748 383.668C250.748 379.975 251.527 376.693 253.086 373.821C254.646 370.948 256.779 368.692 259.487 367.05C262.195 365.368 265.252 364.527 268.658 364.527C271.53 364.527 274.012 365.081 276.105 366.189C278.198 367.256 279.818 368.815 280.967 370.866C282.157 372.918 282.752 375.38 282.752 378.252C282.752 378.908 282.711 379.585 282.629 380.283C282.547 380.94 282.444 381.576 282.321 382.191H253.948L254.502 378.929H280.29L278.505 380.16C278.916 377.575 278.731 375.4 277.951 373.636C277.172 371.872 275.961 370.538 274.32 369.635C272.72 368.692 270.791 368.22 268.535 368.22C265.909 368.22 263.57 368.876 261.518 370.189C259.467 371.461 257.867 373.246 256.718 375.544C255.569 377.801 254.994 380.447 254.994 383.483C254.994 386.725 255.918 389.228 257.764 390.992C259.651 392.716 262.462 393.577 266.196 393.577C268.371 393.577 270.381 393.228 272.228 392.531C274.074 391.792 275.592 390.787 276.782 389.515L278.752 392.654C277.233 394.172 275.325 395.362 273.028 396.224C270.771 397.044 268.371 397.455 265.827 397.455ZM309.188 364.527C312.101 364.527 314.481 365.101 316.327 366.25C318.215 367.358 319.507 368.979 320.205 371.112C320.943 373.246 321.005 375.79 320.389 378.744L316.696 397.147H312.327L316.019 378.683C316.676 375.482 316.327 372.979 314.973 371.174C313.66 369.369 311.321 368.466 307.957 368.466C304.51 368.466 301.638 369.41 299.34 371.297C297.083 373.185 295.565 376.016 294.786 379.791L291.339 397.147H286.969L293.37 364.835H297.555L295.709 374.128L294.786 372.528C296.345 369.738 298.355 367.707 300.817 366.435C303.32 365.163 306.11 364.527 309.188 364.527ZM327.946 397.147L334.347 364.835H338.717L332.316 397.147H327.946ZM338.348 357.695C337.486 357.695 336.768 357.408 336.193 356.834C335.66 356.259 335.393 355.582 335.393 354.802C335.393 353.9 335.701 353.12 336.316 352.464C336.973 351.807 337.794 351.479 338.778 351.479C339.681 351.479 340.399 351.746 340.933 352.279C341.507 352.812 341.794 353.489 341.794 354.31C341.794 355.295 341.466 356.115 340.809 356.772C340.194 357.387 339.373 357.695 338.348 357.695ZM359.862 397.455C356.784 397.455 354.097 396.901 351.799 395.793C349.542 394.644 347.798 393.044 346.567 390.992C345.378 388.941 344.783 386.499 344.783 383.668C344.783 379.975 345.562 376.693 347.121 373.821C348.681 370.948 350.814 368.692 353.522 367.05C356.23 365.368 359.287 364.527 362.693 364.527C365.565 364.527 368.047 365.081 370.14 366.189C372.233 367.256 373.853 368.815 375.002 370.866C376.192 372.918 376.787 375.38 376.787 378.252C376.787 378.908 376.746 379.585 376.664 380.283C376.582 380.94 376.479 381.576 376.356 382.191H347.983L348.537 378.929H374.325L372.54 380.16C372.951 377.575 372.766 375.4 371.986 373.636C371.207 371.872 369.996 370.538 368.355 369.635C366.755 368.692 364.826 368.22 362.57 368.22C359.944 368.22 357.605 368.876 355.553 370.189C353.502 371.461 351.902 373.246 350.753 375.544C349.604 377.801 349.029 380.447 349.029 383.483C349.029 386.725 349.953 389.228 351.799 390.992C353.686 392.716 356.497 393.577 360.231 393.577C362.406 393.577 364.416 393.228 366.263 392.531C368.109 391.792 369.627 390.787 370.817 389.515L372.787 392.654C371.268 394.172 369.36 395.362 367.063 396.224C364.806 397.044 362.406 397.455 359.862 397.455Z" fill="#172554"/>
<path d="M392.222 161.347C421.441 161.347 445.128 137.66 445.128 108.441C445.128 79.2213 421.441 55.5342 392.222 55.5342C363.002 55.5342 339.315 79.2213 339.315 108.441C339.315 137.66 363.002 161.347 392.222 161.347Z" fill="#F42F4C" fill-opacity="0.7"/>
<path d="M376.879 129.603L382.698 112.144L367.532 101.21H386.402L392.222 83.751L398.041 101.21H416.911L401.568 111.968L407.388 129.427L392.222 118.846L376.879 129.603ZM395.396 116.553L400.158 119.904L398.394 114.437L395.396 116.553ZM386.049 114.437L384.286 119.904L389.047 116.553L386.049 114.437ZM387.284 110.733L392.222 114.26L397.159 110.733L395.22 105.09H389.047L387.284 110.733ZM379.348 105.09L384.109 108.441L385.167 105.09H379.348ZM400.334 108.441L405.095 105.09H399.276L400.334 108.441ZM390.458 101.21H393.985L392.222 95.7431L390.458 101.21Z" fill="#4F682E"/>
</svg>
